<?xml version="1.0" encoding="UTF-8" standalone="no"?>
<svg
   xmlns:dc="http://purl.org/dc/elements/1.1/"
   xmlns:cc="http://creativecommons.org/ns#"
   xmlns:rdf="http://www.w3.org/1999/02/22-rdf-syntax-ns#"
   xmlns:svg="http://www.w3.org/2000/svg"
   xmlns="http://www.w3.org/2000/svg"
   version="1.1"
   id="svg2"
   xml:space="preserve"
   width="500"
   height="500"
   viewBox="0 0 500 500"><metadata
     id="metadata8"><rdf:RDF><cc:Work
         rdf:about=""><dc:format>image/svg+xml</dc:format><dc:type
           rdf:resource="http://purl.org/dc/dcmitype/StillImage" /></cc:Work></rdf:RDF></metadata><defs
     id="defs6"><clipPath
       clipPathUnits="userSpaceOnUse"
       id="clipPath18"><path
         d="M 0,0 H 1562.5 V 1562.5 H 0 Z"
         clip-rule="evenodd"
         id="path16" /></clipPath><clipPath
       clipPathUnits="userSpaceOnUse"
       id="clipPath30"><path
         d="M 0,0 H 1562.5 V 1562.5 H 0 Z"
         clip-rule="evenodd"
         id="path28" /></clipPath><clipPath
       clipPathUnits="userSpaceOnUse"
       id="clipPath42"><path
         d="M 226.76494,226.76494 H 1336.1399 V 1335.7005 H 226.76494 Z"
         clip-rule="evenodd"
         id="path40" /></clipPath><clipPath
       clipPathUnits="userSpaceOnUse"
       id="clipPath64"><path
         d="M 0,0 H 1562.5 V 1562.5 H 0 Z"
         clip-rule="evenodd"
         id="path62" /></clipPath><clipPath
       clipPathUnits="userSpaceOnUse"
       id="clipPath174"><path
         d="M 0,0 H 1562.5 V 1593.75 H 0 Z"
         id="path172" /></clipPath><clipPath
       clipPathUnits="userSpaceOnUse"
       id="clipPath180"><path
         d="M 0,0 H 1562.5 V 1562.5 H 0 Z"
         id="path178" /></clipPath><clipPath
       clipPathUnits="userSpaceOnUse"
       id="clipPath186"><path
         d="M 0,0 H 1562.5 V 1562.5 H 0 Z"
         id="path184" /></clipPath><clipPath
       clipPathUnits="userSpaceOnUse"
       id="clipPath192"><path
         d="M 453.01013,453.01013 H 1109.4899 V 1109.4899 H 453.01013 Z"
         id="path190" /></clipPath><clipPath
       clipPathUnits="userSpaceOnUse"
       id="clipPath198"><path
         d="m 781.25,453.01013 c -181.28186,0 -328.23987,146.95801 -328.23987,328.23987 0,181.28186 146.95801,328.2399 328.23987,328.2399 181.28186,0 328.2399,-146.95804 328.2399,-328.2399 0,-181.28186 -146.95804,-328.23987 -328.2399,-328.23987 z"
         id="path196" /></clipPath><clipPath
       clipPathUnits="userSpaceOnUse"
       id="clipPath210"><path
         d="M 0,0 H 1562.5 V 1562.5 H 0 Z"
         clip-rule="evenodd"
         id="path208" /></clipPath><clipPath
       clipPathUnits="userSpaceOnUse"
       id="clipPath262"><path
         d="M 479.05563,479.05563 H 1082.1806 V 1082.1806 H 479.05563 Z"
         clip-rule="evenodd"
         id="path260" /></clipPath><clipPath
       clipPathUnits="userSpaceOnUse"
       id="clipPath274"><path
         d="m 415.76904,566.29303 h 521.875 V 1013.168 h -521.875 z"
         clip-rule="evenodd"
         id="path272" /></clipPath><clipPath
       clipPathUnits="userSpaceOnUse"
       id="clipPath296"><path
         d="M 0,0 H 1562.5 V 1593.75 H 0 Z"
         id="path294" /></clipPath><clipPath
       clipPathUnits="userSpaceOnUse"
       id="clipPath302"><path
         d="M 0,0 H 1562.5 V 1562.5 H 0 Z"
         id="path300" /></clipPath><clipPath
       clipPathUnits="userSpaceOnUse"
       id="clipPath308"><path
         d="M 0,0 H 1562.5 V 1562.5 H 0 Z"
         id="path306" /></clipPath><clipPath
       clipPathUnits="userSpaceOnUse"
       id="clipPath314"><path
         d="m 781.25079,613.08936 339.91601,-21.96698 25.9975,402.28588 -339.91595,21.96694 z"
         id="path312" /></clipPath><clipPath
       clipPathUnits="userSpaceOnUse"
       id="clipPath320"><path
         d="m 781.25079,613.08936 339.91601,-21.96698 25.9975,402.28588 -339.91595,21.96694 z"
         id="path318" /></clipPath></defs><g
     id="g10"
     transform="matrix(0.31999998,0,0,0.31999998,0,9.434666e-6)"><g
       id="g12"><g
         id="g14"
         clip-path="url(#clipPath18)"><g
           id="g20"
           transform="scale(3.125)"><path
             d="M 0,0 H 500 V 500 H 0 Z"
             style="fill:#ffffff;fill-opacity:1;fill-rule:nonzero;stroke:none"
             id="path22" /></g></g></g><g
       id="g24"><g
         id="g26"
         clip-path="url(#clipPath30)"><g
           id="g32"
           transform="scale(3.125)"><path
             d="M 0,0 H 500 V 500 H 0 Z"
             style="fill:#fbfeff;fill-opacity:1;fill-rule:nonzero;stroke:none"
             id="path34" /></g></g></g><g
       id="g36"><g
         id="g38"
         clip-path="url(#clipPath42)"><g
           id="g44"
           transform="matrix(2.2178712,0,0,-2.2178712,226.76494,1335.7004)"><path
             d="m 495.10001,250 c -3e-5,4.01125 -0.0984,8.02008 -0.29523,12.02649 -0.19684,4.00641 -0.49185,8.00558 -0.88501,11.9975 -0.39319,3.99194 -0.88406,7.97183 -1.47266,11.93963 -0.58859,3.96784 -1.27414,7.91883 -2.0567,11.853 -0.78256,3.93417 -1.66119,7.84677 -2.63583,11.73779 -0.97464,3.89102 -2.04413,7.7558 -3.20853,11.59433 -1.1644,3.83853 -2.4223,7.64615 -3.77365,11.42292 -1.35135,3.77676 -2.79453,7.51809 -4.32959,11.22399 -1.53503,3.70591 -3.16006,7.37192 -4.87506,10.99805 -1.71506,3.62613 -3.51801,7.20798 -5.40888,10.74558 -1.8909,3.53759 -3.86746,7.02667 -5.92962,10.46725 -2.06223,3.44055 -4.20758,6.82846 -6.4361,10.1637 -2.22854,3.3352 -4.53753,6.61374 -6.92703,9.8356 -2.3895,3.22186 -4.85657,6.38315 -7.40128,9.48389 -2.5447,3.10073 -5.16397,6.1372 -7.85775,9.10934 -2.69379,2.97214 -5.45887,5.87637 -8.29526,8.71277 -2.8364,2.83639 -5.74063,5.60147 -8.71277,8.29526 -2.97214,2.69378 -6.00861,5.31305 -9.10934,7.85775 -3.10074,2.54471 -6.26203,5.01178 -9.48389,7.40128 -3.22186,2.3895 -6.5004,4.69849 -9.8356,6.92703 -3.33524,2.22852 -6.72315,4.37387 -10.1637,6.4361 -3.44058,2.06216 -6.92966,4.03872 -10.46725,5.92962 -3.5376,1.89087 -7.11945,3.69382 -10.74558,5.40888 -3.62613,1.715 -7.29214,3.34003 -10.99805,4.87506 -3.7059,1.53506 -7.44723,2.97827 -11.22399,4.32962 -3.77677,1.35135 -7.58439,2.60922 -11.42292,3.77362 -3.83853,1.1644 -7.70331,2.23389 -11.59433,3.20853 -3.89102,0.97464 -7.80362,1.85327 -11.73779,2.63583 -3.93417,0.78256 -7.88516,1.46811 -11.85303,2.0567 -3.9678,0.5886 -7.94766,1.07947 -11.9396,1.47266 -3.99192,0.39316 -7.99109,0.68817 -11.9975,0.88498 -4.00641,0.19681 -8.01524,0.29523 -12.02649,0.29526 -4.01125,-3e-5 -8.02008,-0.0984 -12.0265,-0.29523 -4.00641,-0.19684 -8.00557,-0.49185 -11.9975,-0.88501 -3.99195,-0.39319 -7.97183,-0.88406 -11.93965,-1.47266 -3.96785,-0.58859 -7.91886,-1.27414 -11.85302,-2.0567 -3.93415,-0.78256 -7.84675,-1.66119 -11.73779,-2.63583 -3.89104,-0.97464 -7.75581,-2.04413 -11.59433,-3.20853 -3.83851,-1.1644 -7.64616,-2.4223 -11.42293,-3.77365 -3.77676,-1.35135 -7.51809,-2.79453 -11.22401,-4.32959 -3.7059,-1.53503 -7.37192,-3.16006 -10.99805,-4.87506 -3.62613,-1.71506 -7.20799,-3.51801 -10.74557,-5.40888 -3.5376,-1.8909 -7.02668,-3.86746 -10.46725,-5.92962 -3.44057,-2.06223 -6.82846,-4.20758 -10.16369,-6.4361 -3.33523,-2.22854 -6.61377,-4.53753 -9.83563,-6.92703 -3.22186,-2.3895 -6.383156,-4.85657 -9.483887,-7.40128 -3.100731,-2.5447 -6.137169,-5.16397 -9.109306,-7.85775 -2.972138,-2.69379 -5.876397,-5.45887 -8.712769,-8.29526 -2.83638,-2.8364 -5.601463,-5.74063 -8.29525,-8.71277 -2.693787,-2.97214 -5.31303,-6.00861 -7.857735,-9.10934 -2.544712,-3.10074 -5.011818,-6.26203 -7.401313,-9.48389 -2.389496,-3.22186 -4.69851,-6.5004 -6.927037,-9.8356 -2.228527,-3.33524 -4.373882,-6.72315 -6.436073,-10.1637 -2.062195,-3.44058 -4.038734,-6.92966 -5.929623,-10.46725 -1.890886,-3.5376 -3.693845,-7.11945 -5.408876,-10.74558 -1.715027,-3.62613 -3.340057,-7.29214 -4.875094,-10.99805 -1.535038,-3.7059 -2.978229,-7.44723 -4.329576,-11.22399 -1.351347,-3.77677 -2.609222,-7.58439 -3.773624,-11.42292 -1.164403,-3.83853 -2.233932,-7.70331 -3.208585,-11.59433 C 11.27068,305.66339 10.392077,301.75079 9.6095209,297.81662 8.8269653,293.88245 8.1414022,289.93146 7.5528307,285.96359 6.9642591,281.99579 6.4733882,278.01593 6.0802174,274.02399 5.6870465,270.03207 5.3920498,266.0329 5.1952276,262.02649 4.998405,258.02008 4.8999939,254.01125 4.8999939,250 c 0,-4.01125 0.098411,-8.02008 0.2952337,-12.0265 0.1968222,-4.00641 0.4918189,-8.00557 0.8849898,-11.9975 0.3931708,-3.99195 0.8840417,-7.97183 1.4726128,-11.93965 0.588572,-3.96785 1.2741351,-7.91886 2.0566907,-11.85302 0.7825561,-3.93415 1.6611591,-7.84675 2.6358111,-11.73779 0.974653,-3.89104 2.044182,-7.75581 3.208585,-11.59433 1.164402,-3.83851 2.422277,-7.64616 3.773624,-11.42293 1.351347,-3.77676 2.794538,-7.51809 4.329576,-11.22401 1.535037,-3.7059 3.160067,-7.37192 4.875096,-10.99805 1.715029,-3.62613 3.517988,-7.20799 5.408874,-10.74557 1.890889,-3.5376 3.867428,-7.02668 5.929623,-10.46725 2.062191,-3.44057 4.20755,-6.82846 6.436077,-10.16369 2.228527,-3.33523 4.537541,-6.61377 6.927033,-9.83563 2.389499,-3.22186 4.856601,-6.383156 7.401313,-9.483887 2.544705,-3.100731 5.163948,-6.137169 7.857735,-9.109306 2.693787,-2.972138 5.45887,-5.876397 8.29525,-8.712769 2.836372,-2.83638 5.740631,-5.601463 8.712769,-8.29525 2.972137,-2.693787 6.008575,-5.31303 9.109314,-7.857735 3.10073,-2.544712 6.262019,-5.011818 9.483879,-7.401313 3.22186,-2.389496 6.5004,-4.69851 9.83563,-6.927037 3.33523,-2.228527 6.72312,-4.373882 10.16368,-6.436073 3.44058,-2.062195 6.92966,-4.038734 10.46726,-5.929623 3.53758,-1.890886 7.11944,-3.693845 10.74557,-5.408876 3.62613,-1.715027 7.29215,-3.340057 10.99805,-4.875094 3.70592,-1.535038 7.44725,-2.978229 11.224,-4.329576 3.77678,-1.351347 7.58443,-2.609222 11.42294,-3.773624 3.83852,-1.164403 7.70329,-2.233932 11.59433,-3.208585 3.89104,-0.974652 7.80364,-1.853255 11.73779,-2.6358111 3.93416,-0.7825556 7.88517,-1.4681187 11.85302,-2.0566902 3.96782,-0.5885716 7.9477,-1.0794425 11.93963,-1.4726129 3.99193,-0.3931708 7.99111,-0.6881675 11.99752,-0.8849897 4.00642,-0.1968226 8.01525,-0.2952337 12.0265,-0.2952342 4.01125,5e-7 8.02008,0.098412 12.02649,0.2952342 4.00641,0.1968222 8.00558,0.4918189 11.9975,0.8849897 3.99194,0.3931704 7.97183,0.8840413 11.93963,1.4726134 3.96784,0.588571 7.91883,1.2741341 11.853,2.0566897 3.93417,0.7825561 7.84677,1.6611591 11.73779,2.6358111 3.89102,0.974653 7.7558,2.044182 11.59433,3.208585 3.83853,1.164402 7.64615,2.422277 11.42292,3.773624 3.77676,1.351347 7.51809,2.794538 11.22399,4.329576 3.70591,1.535037 7.37192,3.160067 10.99805,4.875096 3.62613,1.715029 7.20798,3.517988 10.74558,5.408874 3.53759,1.890889 7.02667,3.867428 10.46725,5.929623 3.44055,2.062191 6.82846,4.20755 10.1637,6.436077 3.3352,2.228527 6.61374,4.537541 9.8356,6.927033 3.22186,2.389499 6.38315,4.856601 9.48389,7.401313 3.10073,2.544705 6.1372,5.163948 9.10934,7.857735 2.97214,2.693787 5.87637,5.45887 8.71277,8.29525 2.83639,2.836372 5.60147,5.740631 8.29526,8.712769 2.69378,2.972137 5.31305,6.008575 7.85775,9.109314 2.54471,3.10073 5.01178,6.262019 7.40128,9.483879 2.3895,3.22186 4.69849,6.5004 6.92703,9.83563 2.22852,3.33523 4.37387,6.72312 6.4361,10.16368 2.06216,3.44058 4.03872,6.92966 5.92962,10.46726 1.89087,3.53758 3.69382,7.11944 5.40888,10.74557 1.715,3.62613 3.34003,7.29215 4.87506,10.99805 1.53506,3.70592 2.97827,7.44725 4.32962,11.224 1.35135,3.77678 2.60922,7.58443 3.77362,11.42294 1.1644,3.83852 2.23389,7.70329 3.20853,11.59433 0.97464,3.89104 1.85327,7.80364 2.63583,11.73779 0.78256,3.93416 1.46811,7.88517 2.0567,11.85302 0.5886,3.96782 1.07947,7.9477 1.47266,11.93963 0.39316,3.99193 0.68817,7.99111 0.88498,11.99752 0.19681,4.00642 0.29523,8.01525 0.29526,12.0265 z"
             style="fill:#ffe8ff;fill-opacity:1;fill-rule:nonzero;stroke:none"
             id="path46" /><path
             d="M 250,500 C 183.2,500 120.39999,474 73.199997,426.79999 26,379.59998 0,316.79999 0,250 0,183.20001 26,120.4 73.199997,73.199997 120.39999,25.999992 183.2,0 250,0 316.79999,0 379.60001,26 426.79999,73.199997 473.99997,120.39999 500,183.2 500,250 500,316.79999 474,379.60001 426.79999,426.79999 379.59998,473.99997 316.79999,500 250,500 Z M 250,9.8000002 c -64.2,0 -124.5,24.9999988 -169.800003,70.4000048 C 34.899994,125.60001 9.8000002,185.8 9.8000002,250 c 0,64.20001 24.9999988,124.5 70.4000048,169.79999 C 125.60001,465.09998 185.89999,490.19998 250,490.19998 c 64.10001,0 124.5,-25 169.79999,-70.39999 45.29999,-45.4 70.39999,-105.70001 70.39999,-169.80001 0,-64.19999 -25,-124.49999 -70.39999,-169.799998 C 374.39999,34.899979 314.20001,9.8000002 250,9.8000002 Z"
             style="fill:#4a1059;fill-opacity:1;fill-rule:nonzero;stroke:none"
             id="path48" /><path
             d="m 250.10001,249.89999 212.80001,78.4 c 9,-24.4 13.9,-50.70001 13.9,-78.2 0,-125.2 -101.5,-226.800002 -226.8,-226.800002 C 124.70001,23.299988 23.200001,124.8 23.200001,250 c 0,27.5 4.899999,53.89999 13.899997,78.29999 z"
             style="fill:#4a1059;fill-opacity:1;fill-rule:nonzero;stroke:none"
             id="path50" /><path
             d="m 249.5,482.20001 c -61.89999,0 -120.10001,-24.1 -163.800003,-67.89999 C 42,370.50003 17.799999,312.39999 17.799999,250.5 c 0,-61.89999 24.100003,-120.10001 67.899998,-163.800003 C 129.5,43 187.60001,18.799995 249.5,18.799995 c 61.89999,0 120.10001,24.099999 163.79999,67.900002 C 456.99997,130.5 481.19998,188.60001 481.19998,250.5 c 0,61.89999 -24.1,120.10001 -67.89999,163.79999 C 369.5,457.99997 311.39999,482.20001 249.5,482.20001 Z M 249.5,28.6 c -59.3,0 -115,23.100001 -156.899994,64.999998 -41.900001,41.900002 -65,97.600002 -65,156.900002 0,59.29999 23.099999,115 65,156.89999 41.899994,41.9 97.600004,65 156.899994,65 59.29999,0 115,-23.1 156.89999,-65 41.9,-41.89999 65,-97.6 65,-156.89999 0,-59.3 -23.1,-115 -65,-156.899994 C 364.5,51.700001 308.79999,28.6 249.5,28.6 Z"
             style="fill:#4a1059;fill-opacity:1;fill-rule:nonzero;stroke:none"
             id="path52" /><path
             d="m 368.40002,250.00002 c 0,3.87776 -0.19003,7.74617 -0.57012,11.6052 -0.3801,3.85907 -0.94843,7.69022 -1.70493,11.49344 -0.7565,3.80326 -1.69757,7.56025 -2.82321,11.27103 -1.12564,3.71078 -2.43045,7.35745 -3.91443,10.94 -1.48395,3.58258 -3.13989,7.0838 -4.96784,10.50363 -1.82797,3.4199 -3.81912,6.74195 -5.97351,9.96616 -2.15432,3.22421 -4.46151,6.33511 -6.92154,9.33264 -2.45999,2.99753 -5.061,5.86731 -7.803,8.60929 -2.74198,2.742 -5.61173,5.34301 -8.60926,7.803 -2.99756,2.46 -6.10846,4.76719 -9.3327,6.92154 -3.22421,2.15439 -6.54623,4.14554 -9.96613,5.97351 -3.41986,1.82795 -6.92108,3.48389 -10.50366,4.96787 -3.58255,1.48398 -7.22918,2.78879 -10.93997,3.91443 -3.71078,1.12564 -7.46777,2.06671 -11.27103,2.82321 -3.80322,0.7565 -7.63437,1.32483 -11.49347,1.70493 -3.85903,0.38009 -7.72744,0.57012 -11.6052,0.57012 -3.87774,0 -7.74614,-0.19003 -11.60523,-0.57012 -3.85908,-0.3801 -7.69026,-0.94843 -11.4935,-1.70493 -3.80322,-0.7565 -7.56023,-1.69757 -11.271,-2.82321 -3.71076,-1.12564 -7.35743,-2.43045 -10.94001,-3.91443 -3.58257,-1.48395 -7.08379,-3.13989 -10.50365,-4.96784 -3.41988,-1.82797 -6.74193,-3.81912 -9.96616,-5.97351 -3.22422,-2.15432 -6.33509,-4.46151 -9.33262,-6.92154 -2.99755,-2.45999 -5.8673,-5.061 -8.60929,-7.803 -2.74199,-2.74198 -5.34298,-5.61173 -7.80299,-8.60926 -2.46001,-2.99756 -4.76721,-6.10846 -6.92158,-9.3327 -2.15436,-3.22421 -4.14551,-6.54623 -5.97347,-9.96613 -1.82794,-3.41986 -3.48389,-6.92108 -4.96785,-10.50366 -1.48395,-3.58255 -2.78874,-7.22918 -3.91438,-10.93997 -1.12566,-3.71078 -2.06676,-7.46777 -2.82328,-11.27103 -0.75651,-3.80322 -1.32481,-7.63437 -1.70489,-11.49347 -0.38008,-3.85903 -0.57013,-7.72744 -0.57011,-11.6052 -2e-5,-3.87774 0.19003,-7.74614 0.57011,-11.60523 0.38008,-3.85908 0.94838,-7.69026 1.70489,-11.4935 0.75652,-3.80322 1.69761,-7.56023 2.82326,-11.271 1.12566,-3.71076 2.43045,-7.35743 3.91439,-10.94001 1.48396,-3.58257 3.1399,-7.08379 4.96786,-10.50365 1.82796,-3.41988 3.81911,-6.74193 5.97347,-9.96616 2.15437,-3.22422 4.46157,-6.33509 6.92158,-9.33262 2.46001,-2.99755 5.061,-5.8673 7.80298,-8.60929 2.74199,-2.74199 5.61174,-5.34298 8.60928,-7.80299 2.99755,-2.46001 6.10842,-4.76721 9.33263,-6.92158 3.22423,-2.15436 6.54628,-4.14551 9.96615,-5.97347 3.41987,-1.82794 6.92109,-3.48389 10.50365,-4.96785 3.58258,-1.48395 7.22927,-2.78874 10.94005,-3.91438 3.71077,-1.12566 7.46776,-2.06676 11.27098,-2.82328 3.80324,-0.75651 7.63442,-1.32481 11.4935,-1.70489 3.85909,-0.38008 7.72749,-0.57011 11.60523,-0.57011 3.87776,0 7.74617,0.19004 11.6052,0.57012 3.85907,0.38009 7.69022,0.94837 11.49344,1.70488 3.80326,0.75652 7.56025,1.69762 11.27103,2.82328 3.71078,1.12564 7.35745,2.43043 10.94,3.91438 3.58258,1.48396 7.0838,3.13991 10.50363,4.96785 3.4199,1.82796 6.74195,3.81911 9.96616,5.97347 3.22421,2.15437 6.33511,4.46157 9.33264,6.92158 2.99753,2.46001 5.86731,5.061 8.60929,7.80298 2.742,2.74199 5.34301,5.61174 7.803,8.60928 2.46,2.99755 4.76719,6.10842 6.92154,9.33263 2.15439,3.22423 4.14554,6.54628 5.97351,9.96615 1.82795,3.41987 3.48389,6.92109 4.96787,10.50365 1.48398,3.58258 2.78879,7.22927 3.91443,10.94005 1.12564,3.71077 2.06671,7.46776 2.82321,11.27098 0.7565,3.80324 1.32483,7.63442 1.70493,11.4935 0.38009,3.85909 0.57012,7.72749 0.57012,11.60523 z"
             style="fill:#fc83f8;fill-opacity:1;fill-rule:nonzero;stroke:none"
             id="path54" /><path
             d="M 250,373.29999 C 182,373.29999 126.7,318 126.7,249.99998 126.7,181.99997 182,126.7 250,126.7 318,126.7 373.29999,182 373.29999,250 373.29999,318 318,373.29999 250,373.29999 Z M 250,136.5 c -62.60001,0 -113.5,50.89999 -113.5,113.5 0,62.60001 50.89999,113.5 113.5,113.5 62.60001,0 113.5,-50.89999 113.5,-113.5 0,-62.60001 -50.89999,-113.5 -113.5,-113.5 z"
             style="fill:#4a1059;fill-opacity:1;fill-rule:nonzero;stroke:none"
             id="path56" /></g></g></g><g
       id="g58"><g
         id="g60"
         clip-path="url(#clipPath64)"><g
           id="g66"
           transform="matrix(-0.44248822,2.7368863,-2.7368863,-0.44248822,447.50754,694.60376)"><text
             transform="translate(0,44)"
             style="font-variant:normal;font-weight:900;font-size:49.33px;font-family:AlegreyaSansSC;-inkscape-font-specification:AlegreyaSansSC-Black;writing-mode:lr-tb;fill:#fefefe;fill-opacity:1;fill-rule:nonzero;stroke:none"
             id="text70"><tspan
               x="0"
               y="0"
               id="tspan68">F</tspan></text></g><g
           id="g72"
           transform="matrix(0.09828698,2.7706826,-2.7706826,0.09828698,436.54276,751.34839)"><text
             transform="translate(0,44)"
             style="font-variant:normal;font-weight:900;font-size:49.33px;font-family:AlegreyaSansSC;-inkscape-font-specification:AlegreyaSansSC-Black;writing-mode:lr-tb;fill:#fefefe;fill-opacity:1;fill-rule:nonzero;stroke:none"
             id="text76"><tspan
               x="0"
               y="0"
               id="tspan74">A</tspan></text></g><g
           id="g78"
           transform="matrix(0.64958793,2.695251,-2.695251,0.64958793,439.18399,828.46356)"><text
             transform="translate(0,44)"
             style="font-variant:normal;font-weight:900;font-size:49.33px;font-family:AlegreyaSansSC;-inkscape-font-specification:AlegreyaSansSC-Black;writing-mode:lr-tb;fill:#fefefe;fill-opacity:1;fill-rule:nonzero;stroke:none"
             id="text82"><tspan
               x="0"
               y="0"
               id="tspan80">Ç</tspan></text></g><g
           id="g84"
           transform="matrix(1.1747222,2.5112488,-2.5112488,1.1747222,452.09421,888.97571)"><text
             transform="translate(0,44)"
             style="font-variant:normal;font-weight:900;font-size:49.33px;font-family:AlegreyaSansSC;-inkscape-font-specification:AlegreyaSansSC-Black;writing-mode:lr-tb;fill:#fefefe;fill-opacity:1;fill-rule:nonzero;stroke:none"
             id="text88"><tspan
               x="0"
               y="0"
               id="tspan86">A</tspan></text></g><g
           id="g90"
           transform="matrix(1.5141972,2.3224015,-2.3224015,1.5141972,488.66068,962.2121)" /><g
           id="g92"
           transform="matrix(1.8326383,2.0803313,-2.0803313,1.8326383,494.22955,975.97363)"><text
             transform="translate(0,44)"
             style="font-variant:normal;font-weight:900;font-size:49.33px;font-family:AlegreyaSansSC;-inkscape-font-specification:AlegreyaSansSC-Black;writing-mode:lr-tb;fill:#fefefe;fill-opacity:1;fill-rule:nonzero;stroke:none"
             id="text96"><tspan
               x="0"
               y="0"
               id="tspan94">U</tspan></text></g><g
           id="g98"
           transform="matrix(2.2935693,1.5575243,-1.5575243,2.2935693,543.0434,1035.7323)"><text
             transform="translate(0,44)"
             style="font-variant:normal;font-weight:900;font-size:49.33px;font-family:AlegreyaSansSC;-inkscape-font-specification:AlegreyaSansSC-Black;writing-mode:lr-tb;fill:#fefefe;fill-opacity:1;fill-rule:nonzero;stroke:none"
             id="text102"><tspan
               x="0"
               y="0"
               id="tspan100">M</tspan></text></g><g
           id="g104"
           transform="matrix(2.5228105,1.1496825,-1.1496825,2.5228105,630.86157,1091.3198)" /><g
           id="g106"
           transform="matrix(2.6802084,0.70910096,-0.70910096,2.6802084,640.66785,1100.5935)"><text
             transform="translate(0,44)"
             style="font-variant:normal;font-weight:900;font-size:49.33px;font-family:AlegreyaSansSC;-inkscape-font-specification:AlegreyaSansSC-Black;writing-mode:lr-tb;fill:#fefefe;fill-opacity:1;fill-rule:nonzero;stroke:none"
             id="text110"><tspan
               x="0"
               y="0"
               id="tspan108">M</tspan></text></g><g
           id="g112"
           transform="matrix(2.77159,0.06805195,-0.06805195,2.77159,736.53717,1125.1272)"><text
             transform="translate(0,44)"
             style="font-variant:normal;font-weight:900;font-size:49.33px;font-family:AlegreyaSansSC;-inkscape-font-specification:AlegreyaSansSC-Black;writing-mode:lr-tb;fill:#fefefe;fill-opacity:1;fill-rule:nonzero;stroke:none"
             id="text116"><tspan
               x="0"
               y="0"
               id="tspan114">E</tspan></text></g><g
           id="g118"
           transform="matrix(2.7296684,-0.48502859,0.48502859,2.7296684,802.04584,1127.9631)"><text
             transform="translate(0,44)"
             style="font-variant:normal;font-weight:900;font-size:49.33px;font-family:AlegreyaSansSC;-inkscape-font-specification:AlegreyaSansSC-Black;writing-mode:lr-tb;fill:#fefefe;fill-opacity:1;fill-rule:nonzero;stroke:none"
             id="text122"><tspan
               x="0"
               y="0"
               id="tspan120">G</tspan></text></g><g
           id="g124"
           transform="matrix(2.5641868,-1.0541764,1.0541764,2.5641868,873.16492,1116.5979)"><text
             transform="translate(0,44)"
             style="font-variant:normal;font-weight:900;font-size:49.33px;font-family:AlegreyaSansSC;-inkscape-font-specification:AlegreyaSansSC-Black;writing-mode:lr-tb;fill:#fefefe;fill-opacity:1;fill-rule:nonzero;stroke:none"
             id="text128"><tspan
               x="0"
               y="0"
               id="tspan126">A</tspan></text></g><g
           id="g130"
           transform="matrix(2.3916693,-1.4022342,1.4022342,2.3916693,948.05975,1083.5548)" /><g
           id="g132"
           transform="matrix(2.1957595,-1.6926256,1.6926256,2.1957595,962.7677,1077.1455)"><text
             transform="translate(0,44)"
             style="font-variant:normal;font-weight:900;font-size:49.33px;font-family:AlegreyaSansSC;-inkscape-font-specification:AlegreyaSansSC-Black;writing-mode:lr-tb;fill:#fefefe;fill-opacity:1;fill-rule:nonzero;stroke:none"
             id="text136"><tspan
               x="0"
               y="0"
               id="tspan134">E</tspan></text></g><g
           id="g138"
           transform="matrix(1.8084801,-2.1013665,2.1013665,1.8084801,1015.3732,1038.3695)"><text
             transform="translate(0,44)"
             style="font-variant:normal;font-weight:900;font-size:49.33px;font-family:AlegreyaSansSC;-inkscape-font-specification:AlegreyaSansSC-Black;writing-mode:lr-tb;fill:#fefefe;fill-opacity:1;fill-rule:nonzero;stroke:none"
             id="text142"><tspan
               x="0"
               y="0"
               id="tspan140">V</tspan></text></g><g
           id="g144"
           transform="matrix(1.3466028,-2.4234281,2.4234281,1.3466028,1064.8107,981.49414)"><text
             transform="translate(0,44)"
             style="font-variant:normal;font-weight:900;font-size:49.33px;font-family:AlegreyaSansSC;-inkscape-font-specification:AlegreyaSansSC-Black;writing-mode:lr-tb;fill:#fefefe;fill-opacity:1;fill-rule:nonzero;stroke:none"
             id="text148"><tspan
               x="0"
               y="0"
               id="tspan146">E</tspan></text></g><g
           id="g150"
           transform="matrix(0.78875989,-2.6578562,2.6578562,0.78875989,1098.0726,926.46741)"><text
             transform="translate(0,44)"
             style="font-variant:normal;font-weight:900;font-size:49.33px;font-family:AlegreyaSansSC;-inkscape-font-specification:AlegreyaSansSC-Black;writing-mode:lr-tb;fill:#fefefe;fill-opacity:1;fill-rule:nonzero;stroke:none"
             id="text154"><tspan
               x="0"
               y="0"
               id="tspan152">N</tspan></text></g><g
           id="g156"
           transform="matrix(0.20310511,-2.7649755,2.7649755,0.20310511,1122.5836,842.62274)"><text
             transform="translate(0,44)"
             style="font-variant:normal;font-weight:900;font-size:49.33px;font-family:AlegreyaSansSC;-inkscape-font-specification:AlegreyaSansSC-Black;writing-mode:lr-tb;fill:#fefefe;fill-opacity:1;fill-rule:nonzero;stroke:none"
             id="text160"><tspan
               x="0"
               y="0"
               id="tspan158">T</tspan></text></g><g
           id="g162"
           transform="matrix(-0.36679947,-2.7480538,2.7480538,-0.36679947,1128.9919,780.74725)"><text
             transform="translate(0,44)"
             style="font-variant:normal;font-weight:900;font-size:49.33px;font-family:AlegreyaSansSC;-inkscape-font-specification:AlegreyaSansSC-Black;writing-mode:lr-tb;fill:#fefefe;fill-opacity:1;fill-rule:nonzero;stroke:none"
             id="text166"><tspan
               x="0"
               y="0"
               id="tspan164">O</tspan></text></g></g></g><g
       id="g168"><g
         id="g170"
         clip-path="url(#clipPath174)"><g
           id="g176"
           clip-path="url(#clipPath180)"><g
             id="g182"
             clip-path="url(#clipPath186)"><g
               id="g188"
               clip-path="url(#clipPath192)"><g
                 id="g194"
                 clip-path="url(#clipPath198)"><g
                   id="g200"
                   transform="matrix(2.564374,0,0,2.564374,453.01013,453.01013)"><path
                     d="M 0,0 H 256 V 256 H 0 Z"
                     style="fill:#8948fa;fill-opacity:1;fill-rule:nonzero;stroke:none"
                     id="path202" /></g></g></g></g></g></g></g><g
       id="g204"><g
         id="g206"
         clip-path="url(#clipPath210)"><g
           id="g212"
           transform="matrix(1.5504179,-2.2983789,2.2983789,1.5504179,308.84085,557.36835)"><text
             transform="translate(0,59)"
             style="font-variant:normal;font-weight:900;font-size:66.66px;font-family:AlegreyaSansSC;-inkscape-font-specification:AlegreyaSansSC-Black;writing-mode:lr-tb;fill:#4a1059;fill-opacity:1;fill-rule:nonzero;stroke:none"
             id="text216"><tspan
               x="0"
               y="0"
               id="tspan214">M</tspan></text></g><g
           id="g218"
           transform="matrix(2.2154269,-1.6668009,1.6668009,2.2154269,428.97339,400.96774)"><text
             transform="translate(0,59)"
             style="font-variant:normal;font-weight:900;font-size:66.66px;font-family:AlegreyaSansSC;-inkscape-font-specification:AlegreyaSansSC-Black;writing-mode:lr-tb;fill:#4a1059;fill-opacity:1;fill-rule:nonzero;stroke:none"
             id="text222"><tspan
               x="0"
               y="0"
               id="tspan220">E</tspan></text></g><g
           id="g224"
           transform="matrix(2.5945849,-0.97697026,0.97697026,2.5945849,546.73999,319.22229)"><text
             transform="translate(0,59)"
             style="font-variant:normal;font-weight:900;font-size:66.66px;font-family:AlegreyaSansSC;-inkscape-font-specification:AlegreyaSansSC-Black;writing-mode:lr-tb;fill:#4a1059;fill-opacity:1;fill-rule:nonzero;stroke:none"
             id="text228"><tspan
               x="0"
               y="0"
               id="tspan226">G</tspan></text></g><g
           id="g230"
           transform="matrix(2.7681096,-0.15463285,0.15463285,2.7681096,694.63928,270.50446)"><text
             transform="translate(0,59)"
             style="font-variant:normal;font-weight:900;font-size:66.66px;font-family:AlegreyaSansSC;-inkscape-font-specification:AlegreyaSansSC-Black;writing-mode:lr-tb;fill:#4a1059;fill-opacity:1;fill-rule:nonzero;stroke:none"
             id="text234"><tspan
               x="0"
               y="0"
               id="tspan232">A</tspan></text></g><g
           id="g236"
           transform="matrix(2.7435851,0.39885119,-0.39885119,2.7435851,843.93036,270.0769)" /><g
           id="g238"
           transform="matrix(2.5912595,0.98575699,-0.98575699,2.5912595,904.93048,277.07074)"><text
             transform="translate(0,59)"
             style="font-variant:normal;font-weight:900;font-size:66.66px;font-family:AlegreyaSansSC;-inkscape-font-specification:AlegreyaSansSC-Black;writing-mode:lr-tb;fill:#4a1059;fill-opacity:1;fill-rule:nonzero;stroke:none"
             id="text242"><tspan
               x="0"
               y="0"
               id="tspan240">H</tspan></text></g><g
           id="g244"
           transform="matrix(2.1210341,1.7853727,-1.7853727,2.1210341,1070.1194,349.75427)"><text
             transform="translate(0,59)"
             style="font-variant:normal;font-weight:900;font-size:66.66px;font-family:AlegreyaSansSC;-inkscape-font-specification:AlegreyaSansSC-Black;writing-mode:lr-tb;fill:#4a1059;fill-opacity:1;fill-rule:nonzero;stroke:none"
             id="text248"><tspan
               x="0"
               y="0"
               id="tspan246">U</tspan></text></g><g
           id="g250"
           transform="matrix(1.4572961,2.3585229,-2.3585229,1.4572961,1193.2141,463.62457)"><text
             transform="translate(0,59)"
             style="font-variant:normal;font-weight:900;font-size:66.66px;font-family:AlegreyaSansSC;-inkscape-font-specification:AlegreyaSansSC-Black;writing-mode:lr-tb;fill:#4a1059;fill-opacity:1;fill-rule:nonzero;stroke:none"
             id="text254"><tspan
               x="0"
               y="0"
               id="tspan252">B</tspan></text></g></g></g><g
       id="g256"><g
         id="g258"
         clip-path="url(#clipPath262)"><g
           id="g264"
           transform="matrix(1.0153657,0,0,1.0153657,353.86102,479.05563)"><path
             d="m 718.5,297.60001 c 0,4.87045 -0.11951,9.73794 -0.35852,14.60254 -0.23901,4.86459 -0.59717,9.72036 -1.07452,14.56735 -0.47742,4.84701 -1.07343,9.67938 -1.78803,14.4971 -0.71472,4.81772 -1.54718,9.61499 -2.49731,14.39184 -0.9502,4.77686 -2.01697,9.52753 -3.20038,14.25205 -1.18347,4.72449 -2.48212,9.41708 -3.89588,14.07782 -1.41388,4.66073 -2.94116,9.28393 -4.58197,13.86966 -1.6408,4.58575 -3.39312,9.12848 -5.25695,13.6282 -1.86384,4.49973 -3.83698,8.95099 -5.91932,13.35382 -2.08239,4.4028 -4.27154,8.75186 -6.56744,13.04724 -2.2959,4.29535 -4.6958,8.53177 -7.19971,12.70929 -2.5039,4.17752 -5.10882,8.29111 -7.81469,12.34073 -2.70588,4.04965 -5.50953,8.03046 -8.41083,11.94245 -2.90131,3.91198 -5.89679,7.75042 -8.98657,11.51535 -3.08979,3.76489 -6.27008,7.45172 -9.54084,11.06051 -3.27081,3.60874 -6.62817,7.13507 -10.07208,10.57901 -3.44391,3.44394 -6.97027,6.80127 -10.57904,10.07209 -3.60876,3.27081 -7.29559,6.45105 -11.06049,9.54083 -3.76495,3.08972 -7.60345,6.08526 -11.51538,8.98657 -3.91204,2.90131 -7.89282,5.70496 -11.94238,8.41083 -4.04962,2.70587 -8.16321,5.31073 -12.34076,7.81463 -4.17755,2.50391 -8.41394,4.90381 -12.70929,7.19977 -4.29535,2.2959 -8.64447,4.48505 -13.0473,6.56745 -4.40289,2.08239 -8.85413,4.05548 -13.35382,5.91931 -4.49976,1.86383 -9.04248,3.61615 -13.62817,5.25696 -4.58576,1.6408 -9.20899,3.16815 -13.86963,4.58197 -4.66074,1.41375 -9.35337,2.7124 -14.07785,3.89581 -4.72449,1.18341 -9.47516,2.25018 -14.25202,3.20038 -4.77688,0.95019 -9.57416,1.78259 -14.39187,2.49725 -4.81772,0.71466 -9.65009,1.31073 -14.49707,1.78815 -4.84702,0.47735 -9.70279,0.83557 -14.56736,1.07452 -4.86459,0.23902 -9.73208,0.35852 -14.60254,0.35852 -4.87045,0 -9.73797,-0.1195 -14.60254,-0.35846 -4.86459,-0.23895 -9.72039,-0.59717 -14.56738,-1.07452 -4.84701,-0.47742 -9.67938,-1.07349 -14.49713,-1.78821 -4.81772,-0.71466 -9.61502,-1.54706 -14.39188,-2.49725 -4.77688,-0.9502 -9.52755,-2.01697 -14.25204,-3.20038 -4.72449,-1.18341 -9.41708,-2.48206 -14.07779,-3.89581 -4.66074,-1.41382 -9.28397,-2.94117 -13.86969,-4.58197 -4.58575,-1.64081 -9.12848,-3.39313 -13.6282,-5.25696 -4.49973,-1.86383 -8.95099,-3.83692 -13.35379,-5.91931 -4.40284,-2.0824 -8.75193,-4.27155 -13.04728,-6.56739 -4.29531,-2.29596 -8.53176,-4.69586 -12.70929,-7.19983 -4.17752,-2.5039 -8.2911,-5.10876 -12.34074,-7.81463 -4.04962,-2.70587 -8.03043,-5.50952 -11.94241,-8.41083 -3.91197,-2.90131 -7.7504,-5.89685 -11.51531,-8.98657 -3.76491,-3.08978 -7.45175,-6.27008 -11.06051,-9.5409 -3.60875,-3.27075 -7.13509,-6.62811 -10.57901,-10.07205 -3.44393,-3.44391 -6.80129,-6.97024 -10.07209,-10.57904 -3.27078,-3.60876 -6.45106,-7.29559 -9.54084,-11.06051 -3.08977,-3.76493 -6.08533,-7.60337 -8.98665,-11.51532 -2.90132,-3.91196 -5.70493,-7.89277 -8.4108,-11.94242 -2.70587,-4.04962 -5.31076,-8.16321 -7.81468,-12.34076 -2.50392,-4.17749 -4.90383,-8.41391 -7.19974,-12.70929 -2.29591,-4.29535 -4.48506,-8.64444 -6.56744,-13.04727 -2.08239,-4.40283 -4.0555,-8.85409 -5.91935,-13.35382 -1.86384,-4.49972 -3.61616,-9.04245 -5.25695,-13.62817 -1.6408,-4.58573 -3.16811,-9.20896 -4.58193,-13.86969 -1.4138,-4.66074 -2.71243,-9.35334 -3.89587,-14.07782 -1.18343,-4.72449 -2.25021,-9.47516 -3.2004,-14.25202 -0.95018,-4.77685 -1.78257,-9.57412 -2.49721,-14.39184 -0.71464,-4.81772 -1.31065,-9.65009 -1.78803,-14.49707 -0.47739,-4.84699 -0.83557,-9.70276 -1.07457,-14.56735 -0.23898,-4.8646 -0.35847,-9.73209 -0.35846,-14.60254 -10e-6,-4.87046 0.11948,-9.73795 0.35846,-14.60254 0.239,-4.8646 0.59718,-9.72037 1.07457,-14.56736 0.47738,-4.84701 1.07339,-9.67938 1.78803,-14.49713 0.71464,-4.81773 1.54703,-9.61503 2.49721,-14.39189 0.95019,-4.77685 2.01699,-9.52752 3.20041,-14.25201 1.18343,-4.72449 2.48206,-9.4171 3.89588,-14.07782 1.4138,-4.66072 2.94111,-9.28395 4.58191,-13.86969 1.64079,-4.58574 3.39311,-9.12847 5.25695,-13.62818 1.86385,-4.49971 3.83698,-8.95097 5.91936,-13.3538 2.08238,-4.40283 4.27153,-8.75192 6.56745,-13.04727 2.29591,-4.29534 4.69581,-8.53177 7.19973,-12.70931 2.50391,-4.17752 5.1088,-8.29109 7.81467,-12.34071 2.70587,-4.04964 5.50948,-8.03043 8.4108,-11.94241 2.90132,-3.91198 5.89688,-7.75042 8.98665,-11.51532 3.08978,-3.76491 6.27006,-7.45175 9.54086,-11.060513 3.2708,-3.608773 6.62814,-7.135117 10.07207,-10.579041 3.44392,-3.443931 6.97026,-6.801292 10.57901,-10.072082 3.60876,-3.27079 7.2956,-6.451073 11.06051,-9.540848 3.76491,-3.089783 7.60334,-6.085331 11.51531,-8.986656 3.91198,-2.901318 7.89279,-5.704918 11.94243,-8.410794 4.04962,-2.705875 8.1632,-5.310768 12.34072,-7.814678 4.17753,-2.50391 8.41398,-4.90382 12.70932,-7.19973 4.29535,-2.295913 8.64444,-4.485061 13.04725,-6.567445 4.4028,-2.082385 8.85409,-4.055495 13.35382,-5.919335 4.49972,-1.86384 9.04245,-3.616161 13.62817,-5.256964 4.58572,-1.640803 9.20895,-3.168113 13.86969,-4.58193 4.66071,-1.413815 9.3533,-2.712435 14.07779,-3.8958566 4.72449,-1.1834217 9.47516,-2.2502208 14.25204,-3.2003975 4.77686,-0.9501768 9.57416,-1.7825866 14.39188,-2.4972296 4.81775,-0.714643 9.65012,-1.3106579 14.49713,-1.7880451 4.84699,-0.47738721 9.70279,-0.83557155 14.56738,-1.074553 C 411.16202,0.11949073 416.02954,0 420.89999,0 c 4.87046,0 9.73795,0.11949073 14.60251,0.3584722 4.8646,0.23898145 9.72037,0.59716579 14.56739,1.074553 4.84698,0.4773872 9.67935,1.0734021 14.49707,1.7880451 4.81771,0.714643 9.61499,1.5470528 14.39187,2.4972296 4.77686,0.9501767 9.52753,2.0169758 14.25202,3.2003975 4.72448,1.1834216 9.41711,2.4820416 14.07788,3.8958566 4.66067,1.413817 9.28384,2.941127 13.8696,4.58193 4.58575,1.640803 9.12854,3.393124 13.62823,5.256964 4.49969,1.86384 8.95099,3.83695 13.35388,5.919335 4.40283,2.082384 8.75196,4.271532 13.0473,6.567445 4.29529,2.29591 8.53168,4.69582 12.70923,7.19973 4.17755,2.50391 8.29108,5.108803 12.3407,7.814678 4.04956,2.705876 8.03034,5.509476 11.94238,8.410794 3.91193,2.901325 7.75043,5.896873 11.51538,8.986656 3.7649,3.089775 7.45173,6.270058 11.06049,9.540848 3.60877,3.27079 7.13513,6.628151 10.57904,10.072082 3.44391,3.443924 6.80127,6.970268 10.07208,10.579041 3.27076,3.608753 6.45105,7.295593 9.54084,11.060503 3.08978,3.7649 6.08532,7.60334 8.98663,11.51533 2.90131,3.91197 5.70489,7.89277 8.41077,11.94239 2.70587,4.04964 5.31079,8.16321 7.81469,12.34072 2.50391,4.17753 4.90381,8.41397 7.19971,12.70932 2.2959,4.29533 4.48505,8.64442 6.56744,13.04727 2.08234,4.40282 4.05548,8.85408 5.91932,13.35379 1.86383,4.49971 3.61615,9.04243 5.25695,13.62817 1.64081,4.58574 3.16816,9.20897 4.58203,13.86971 1.41376,4.66072 2.71241,9.35333 3.89588,14.07782 1.18341,4.72449 2.25018,9.47516 3.20038,14.25201 0.95013,4.77686 1.78259,9.57416 2.49725,14.39189 0.7146,4.81775 1.31061,9.65012 1.78809,14.49713 0.47735,4.84699 0.83551,9.70276 1.07446,14.56736 0.23901,4.86459 0.35852,9.73208 0.35852,14.60254 z"
             style="fill:#4a1059;fill-opacity:1;fill-rule:nonzero;stroke:none"
             id="path266" /></g></g></g><g
       id="g268"><g
         id="g270"
         clip-path="url(#clipPath274)"><g
           id="g276"
           transform="matrix(1.034498,0,0,1.034498,421.66678,566.8103)"><path
             d="m 497.05411,378.90002 c -4.29968,35.60627 -28.19654,53.77094 -61.06635,51.43897 -13.12939,-0.93152 -26.698,-5.56189 -39.49383,-13.07422 -0.21527,-0.10205 -0.43421,-0.20026 -0.6482,-0.30365 -28.9403,-13.98285 -50.32086,-39.91803 -64.23614,-68.37665 -6.87537,-14.06128 -12.0578,-28.96234 -15.40784,-44.25103 -3.27081,-14.92756 -4.31976,-29.89612 -4.39465,-45.14466 -0.0813,-16.55408 0.39593,-33.10589 1.32849,-49.63434 -8.3493,27.76758 -18.52344,54.82471 -30.84509,78.38251 -9.79444,18.72589 -22.86853,38.20294 -42.24675,42.70923 -11.5976,2.69702 -22.76343,-0.44244 -32.86866,-6.95654 -3.39892,-1.43036 -6.66162,-3.22669 -9.72406,-5.29956 -21.78741,-14.74707 -35.05249,-39.8111 -44.28527,-63.7284 -5.0221,-13.00952 -8.80115,-26.45611 -11.43641,-40.12897 -2.01232,15.25177 -4.16876,29.08906 -6.60272,39.89557 -4.48785,19.9256 -9.79931,40.98792 -19.71014,60.6745 -10.32141,20.5022 -26.130922,39.24585 -44.87964,46.53913 -14.127499,5.4956 -28.594177,3.6455 -39.759338,-4.10852 -0.46686,-0.18183 -0.93573,-0.35468 -1.398501,-0.55481 C 16.948101,351.60309 8.4730721,340.43231 4.0817108,327.88452 -5.6408195,300.10358 3.3116307,270.31244 17.215681,245.69641 31.574991,220.27429 51.09269,198.23779 65.217819,172.65759 80.280869,145.37891 90.043747,115.85889 101.32091,86.933167 111.14,61.747437 122.88018,35.455936 143.49321,17.146423 154.36754,7.4873028 167.85899,0.68585396 182.57549,0.0430336 c 11.75793,-0.51361001 22.77508,3.58289 30.34454,12.3147604 12.65985,8.34094 17.25067,24.315309 19.66522,39.562319 4.39484,27.751709 6.08142,58.390317 6.8913,92.026127 5.9693,-29.61396 14.29156,-59.145032 30.34611,-84.60413 9.40344,-14.911801 21.53443,-28.15643 36.06806,-38.195679 7.46289,-5.15509 15.53387,-9.40454 24.01098,-12.6315298 8.20435,-3.1231699 17.1966,-5.9198599 26.0777,-5.3996001 6.64972,0.38953 12.63794,3.0643301 15.80628,8.4399409 1.58135,0.67255 3.04266,1.549989 4.31042,2.695309 3.73206,3.371519 4.5473,7.919621 4.95496,12.15662 2.95141,30.676451 -5.2826,63.101259 1.10736,100.382019 5.77014,33.66413 23.7868,71.14521 52.69073,106.27735 15.68659,19.06665 36.44977,38.5057 49.68988,62.42202 6.28198,11.34753 10.0564,24.45312 12.026,37.75738 2.35773,15.92636 2.12494,32.10733 0.48908,45.65408 z"
             style="fill:#fc83f8;fill-opacity:1;fill-rule:nonzero;stroke:none"
             id="path278" /><path
             d="m 402.56387,417.38159 c 21.96912,8.99829 50.31787,10.14795 68.60669,-7.27679 8.599,-8.19275 13.57575,-19.30689 15.85169,-30.83368 3.28027,-16.61359 2.91131,-34.55268 0.49408,-51.24359 -0.78522,-5.19825 -1.81086,-10.35688 -3.18329,-15.43341 -5.54761,-20.51954 -17.75812,-37.60712 -31.38849,-53.57434 -13.17908,-15.43854 -27.20239,-30.02588 -39.08069,-46.5423 -23.18353,-32.23596 -40.47925,-69.71894 -42.91089,-109.77491 -1.26678,-20.866526 1.24677,-41.623293 1.62958,-62.467222 0.0898,-4.890141 0.0423,-9.785519 -0.25568,-14.668391 -0.27166,-4.451231 -0.36242,-9.461359 -2.77374,-13.3725 C 364.4418,3.9039869 352.21664,4.7462173 344.03543,6.6383071 308.66141,14.819397 280.81766,41.347107 264.76669,73.118896 246.31126,109.65039 240.02147,151.39172 233.50005,191.3573 c -0.22223,1.36169 -2.3158,0.9696 -2.32923,-0.31525 -0.0857,-8.2019 -0.17102,-16.40387 -0.27929,-24.60559 -0.3971,-30.07501 -0.96766,-60.2118 -3.72834,-90.179204 -1.2077,-13.110531 -2.47204,-26.483643 -5.52203,-39.315731 C 218.90611,25.434565 213.89537,13.519714 203.33507,7.1564941 190.61638,-0.50732613 173.77544,1.7548242 160.98851,8.0509043 148.13444,14.380005 137.85063,24.892216 129.56725,36.408024 113.76098,58.382515 104.71593,84.32843 95.339951,109.46979 84.77739,137.79298 73.447495,165.88197 56.777882,191.25635 42.028,213.7085 24.436319,234.44061 13.03483,258.95227 c -11.5795297,24.89435 -16.6812095,57.34052 -0.1037,81.35126 7.822391,11.32989 20.696231,18.17309 34.519531,17.76629 13.887569,-0.40875 26.357475,-7.87896 36.155327,-17.26745 22.051332,-21.13007 32.526362,-51.10022 39.629272,-80.06671 7.1853,-29.30255 10.51031,-59.26252 13.90637,-89.19355 0.0302,-0.26641 0.13898,-0.47076 0.27399,-0.64514 -0.0751,-1.65564 -0.16065,-3.30975 -0.24658,-4.96075 -0.34845,-6.69562 -0.83118,-13.38288 -1.22034,-20.07605 -0.0888,-1.52722 2.28339,-1.51703 2.37158,0 0.3891,6.69317 0.87183,13.38043 1.22034,20.07605 0.28399,5.45776 0.55871,10.94824 0.46545,16.42206 1.78479,27.36596 7.81323,54.4851 18.72168,79.6903 9.64966,22.29682 23.65741,46.42206 46.05872,57.9502 10.40515,5.35467 22.43817,6.60834 33.33606,1.90344 10.68823,-4.61432 18.80691,-13.71863 25.24386,-23.15271 6.94269,-10.17529 12.4834,-21.32379 17.60456,-32.50183 5.80462,-12.66968 10.8808,-25.66626 15.45422,-38.8277 9.13434,-26.28692 16.2818,-53.24035 22.24616,-80.4107 0.28411,-1.29444 2.48486,-1.01233 2.32916,0.31518 -0.50189,4.28028 -0.98273,8.56293 -1.43677,12.84857 -3.78186,35.698 -5.90857,71.63489 -5.29138,107.54126 0.50995,29.667 8.3736,59.23713 22.31543,85.41449 14.63241,27.474 36.67361,52.25098 65.9761,64.25281 z M 430.7399,272.18768 c 22.68347,31.12146 43.85339,66.55555 39.88409,103.88684 -0.58502,5.50257 -2.29242,11.70942 -7.62109,14.2334 -6.00867,2.84595 -13.67389,-0.83966 -17.07672,-6.22491 -3.40277,-5.38526 -3.71912,-11.89844 -4.18518,-18.11811 -3.48749,-46.54034 -20.1189,-91.52276 -41.67322,-133.71783 -7.81183,-15.2926 -19.76148,-38.2113 -23.92993,-54.67529 z M 59.86668,228.73926 c -4.99432,6.39245 -9.690121,13.04394 -13.572269,20.1781 -4.128479,7.58685 -6.774292,15.47601 -8.851139,23.82306 -1.988339,7.99145 -0.283871,17.31366 0.855411,25.48279 1.38361,9.9215 3.510071,20.30206 0.110352,29.72491 -2.893009,8.01831 -10.726321,9.49481 -16.19257,2.69562 -3.3382,-4.15228 -4.26263,-9.72846 -4.51453,-15.05023 -0.79175,-16.72864 3.93951,-33.38544 11.44891,-48.35486 10.889278,-21.70697 25.196048,-41.20563 44.374454,-56.35529 -2.57164,2.03137 -11.16478,14.66394 -13.658619,17.8559 z M 153.65727,61.286308 c -3.91162,2.876343 -7.25311,6.797364 -11.88006,8.269097 -0.78931,0.251098 -1.66657,0.420097 -2.42975,0.09814 -1.42713,-0.601929 -1.69293,-2.512391 -1.49292,-4.048279 0.5932,-4.554631 3.34393,-8.577332 6.63971,-11.77649 3.29577,-3.1991 7.16528,-5.73529 10.74469,-8.61359 1.06451,-0.856022 2.21655,-2.123958 1.73755,-3.403259 -2.9856,-1.294491 -7.46589,1.07959 -9.21009,-1.667599 -1.18811,-1.87128 0.33795,-4.26794 1.93372,-5.8064 10.93158,-10.538689 27.03033,-11.511471 40.56988,-5.5415 10.64618,4.694519 17.82044,15.250969 21.09095,26.417168 6.5036,22.204772 3.29297,63.912654 -3.57648,74.998534 -3.492,-13.89155 -3.1731,-28.52857 -6.71838,-42.406677 -5.47583,-21.43497 -24.43036,-43.415934 -47.40882,-26.519145 z M 285.73312,204.20752 c -0.95056,25.27069 -8.21557,49.92456 -21.47863,71.41186 -6.91803,11.20783 -16.6184,21.08356 -28.79619,26.10114 -7.61981,3.13959 -14.11395,3.10352 -21.9737,2.2262 -2.77673,-0.31 -7.25573,-1.23334 -8.87255,-3.82734 -0.12604,-0.20227 -0.23987,-0.42449 -0.24262,-0.66284 -0.009,-0.81604 1.09302,-1.05542 1.90851,-1.08581 3.85376,-0.1438 7.11456,-1.85535 10.57806,-3.30304 4.2406,-1.77252 8.22132,-4.20355 11.60388,-7.31305 9.32343,-8.57068 12.52021,-20.84863 15.62665,-32.65192 1.83002,-6.95331 3.43085,-14.19189 6.55554,-20.70819 5.61309,-11.70538 12.29326,-10.12128 9.8521,3.84985 -0.80035,4.5846 -0.52118,9.78931 -0.23193,14.41712 10.78052,-14.72339 12.47406,-33.91901 21.479,-49.51416 0.61749,-1.0694 1.69525,-2.27319 2.84973,-1.83508 1.0398,0.39459 1.1839,1.78393 1.14215,2.89526 z m 5.23059,-97.84443 c -9.22814,20.21362 -22.11895,41.26691 -32.06573,61.41731 0.0112,0.19067 0.0169,0.3822 0.0291,0.57275 l -0.18164,-0.26764 c 0.0499,-0.10144 0.10242,-0.20361 0.15253,-0.30511 -1.74127,-29.7038 8.87225,-61.32117 30.32092,-90.261182 1.20709,-1.628723 3.38886,-3.608032 5.64368,-3.220146 1.37756,0.236939 1.9173,1.29126 2.22559,2.259033 2.95947,9.290642 -1.5669,19.822075 -6.12446,29.804985 z"
             style="fill:#fc83f8;fill-opacity:1;fill-rule:nonzero;stroke:none"
             id="path280" /><path
             d="m 73.525307,210.88336 c -2.571663,2.03137 -11.164791,14.66394 -13.658631,17.8559 -4.99432,6.39245 -9.69012,13.04394 -13.572269,20.1781 -4.128479,7.58685 -6.774288,15.47601 -8.851139,23.82306 -1.988339,7.99145 -0.283871,17.31366 0.855411,25.48279 1.38361,9.9215 3.510071,20.30206 0.110352,29.72491 -2.893009,8.01831 -10.72632,9.49481 -16.19257,2.69562 -3.338199,-4.15228 -4.26263,-9.72846 -4.51453,-15.05023 -0.79175,-16.72864 3.93951,-33.38544 11.44891,-48.35486 10.889309,-21.70697 25.196068,-41.20563 44.374466,-56.35529 z m 357.214593,61.30432 -54.60205,-94.6159 c 4.16845,16.46399 16.1181,39.38269 23.92993,54.67529 21.55432,42.19507 38.18573,87.17749 41.67322,133.71783 0.46606,6.21967 0.78241,12.73285 4.18518,18.11811 3.40283,5.38525 11.06805,9.07086 17.07672,6.22491 5.32867,-2.52398 7.03607,-8.73083 7.62109,-14.2334 3.9693,-37.33129 -17.20062,-72.76538 -39.88409,-103.88684 z M 258.92709,168.35315 c -0.0122,-0.19055 -0.0179,-0.38208 -0.0291,-0.57275 -0.0501,0.1015 -0.1026,0.20367 -0.15253,0.30511 l 0.18164,0.26764 z m 35.93549,-94.054093 c -2.25482,-0.387878 -4.43659,1.591431 -5.64368,3.220154 -21.44867,28.939999 -32.06219,60.557389 -30.32092,90.261189 9.94678,-20.1504 22.83759,-41.20368 32.06573,-61.4173 4.55756,-9.982912 9.08393,-20.514345 6.12446,-29.804995 -0.30829,-0.967788 -0.84803,-2.022102 -2.22559,-2.259048 z"
             style="fill:#fefefe;fill-opacity:1;fill-rule:nonzero;stroke:none"
             id="path282" /><path
             d="m 207.78447,130.21216 c -3.492,-13.89155 -3.1731,-28.52857 -6.71838,-42.406679 -5.47583,-21.434998 -24.43036,-43.415951 -47.40882,-26.519173 -3.91162,2.876343 -7.25311,6.797364 -11.88006,8.269097 -0.78931,0.251098 -1.66657,0.420097 -2.42975,0.09814 -1.42713,-0.601929 -1.69293,-2.512391 -1.49292,-4.048279 0.5932,-4.554631 3.34393,-8.577332 6.63971,-11.77649 3.29577,-3.1991 7.16528,-5.73529 10.74469,-8.61359 1.06451,-0.856022 2.21655,-2.123958 1.73755,-3.403259 -2.9856,-1.294491 -7.46589,1.07959 -9.21009,-1.667599 -1.18811,-1.87128 0.33795,-4.26794 1.93372,-5.8064 10.93158,-10.538689 27.03033,-11.511471 40.56988,-5.5415 10.64618,4.694519 17.82044,15.250969 21.09095,26.417168 6.5036,22.204795 3.29297,63.912674 -3.57648,74.998564 z"
             style="fill:#5ce1e6;fill-opacity:1;fill-rule:nonzero;stroke:none"
             id="path284" /><path
             d="m 285.73312,204.20752 c -0.95056,25.27069 -8.21557,49.92456 -21.47863,71.41186 -6.91803,11.20783 -16.6184,21.08356 -28.79619,26.10114 -7.61981,3.13959 -14.11395,3.10352 -21.9737,2.2262 -2.77673,-0.31 -7.25573,-1.23334 -8.87255,-3.82734 -0.12604,-0.20227 -0.23987,-0.42449 -0.24262,-0.66284 -0.009,-0.81604 1.09302,-1.05542 1.90851,-1.08581 3.85376,-0.1438 7.11456,-1.85535 10.57806,-3.30304 4.2406,-1.77252 8.22132,-4.20355 11.60388,-7.31305 9.32343,-8.57068 12.52021,-20.84863 15.62665,-32.65192 1.83002,-6.95331 3.43085,-14.19189 6.55554,-20.70819 5.61309,-11.70538 12.29326,-10.12128 9.8521,3.84985 -0.80035,4.5846 -0.52118,9.78931 -0.23193,14.41712 10.78052,-14.72339 12.47406,-33.91901 21.479,-49.51416 0.61749,-1.0694 1.69525,-2.27319 2.84973,-1.83508 1.0398,0.39459 1.1839,1.78393 1.14215,2.89526 z"
             style="fill:#f9eb70;fill-opacity:1;fill-rule:nonzero;stroke:none"
             id="path286" /><path
             d="m 496.56503,333.24591 c -1.9696,-13.30426 -5.74402,-26.40985 -12.026,-37.75738 -13.24011,-23.91633 -34.00329,-43.35535 -49.68988,-62.422 -28.90393,-35.13214 -46.92059,-72.61322 -52.69073,-106.27735 -6.38996,-37.280765 1.84405,-69.705569 -1.10736,-100.382022 -0.40766,-4.237 -1.2229,-8.785099 -4.95496,-12.15662 -1.26776,-1.14532 -2.72907,-2.02277 -4.31042,-2.695311 C 368.61734,6.1796174 362.62912,3.5048075 355.9794,3.1152868 347.0983,2.595027 338.10605,5.391717 329.9017,8.5148869 321.42459,11.741877 313.35361,15.991327 305.89072,21.146416 291.35709,31.185665 279.2261,44.430286 269.82266,59.342094 253.76811,84.801208 245.44585,114.33226 239.47655,143.94623 238.66667,110.31042 236.98009,79.671806 232.58525,51.920097 230.1707,36.673088 225.57988,20.698727 212.92003,12.357777 205.35057,3.6259069 194.33342,-0.47059345 182.57549,0.04301643 167.85899,0.68583649 154.36754,7.4872866 143.49321,17.146406 122.88017,35.455917 111.14,61.747414 101.32091,86.933151 90.043747,115.85887 80.280869,145.37891 65.217819,172.65758 51.092697,198.23778 31.575001,220.27428 17.215679,245.6964 3.31163,270.31244 -5.64082,300.10358 4.0817099,327.88452 c 4.3913602,12.54779 12.8663911,23.71857 25.2972991,29.09406 0.462771,0.20013 0.931641,0.37298 1.398501,0.55481 11.165159,7.75402 25.631838,9.60412 39.75934,4.10852 18.748718,-7.29328 34.55823,-26.03693 44.87964,-46.53913 9.91083,-19.68658 15.22229,-40.7489 19.71014,-60.6745 2.43396,-10.80651 4.5904,-24.6438 6.60272,-39.89557 2.63526,13.67286 6.41431,27.11945 11.43641,40.12897 9.23278,23.9173 22.49786,48.98133 44.28527,63.7284 3.06244,2.07287 6.32514,3.8692 9.72406,5.29956 10.10523,6.5141 21.27106,9.65356 32.86866,6.95654 19.37822,-4.50629 32.45231,-23.98334 42.24675,-42.70923 12.32165,-23.5578 22.49579,-50.61493 30.84509,-78.38251 -0.93256,16.52845 -1.40979,33.08026 -1.32849,49.63434 0.0749,15.24854 1.12384,30.2171 4.39465,45.14466 3.35004,15.28869 8.53247,30.18975 15.40784,44.25103 13.91528,28.45862 35.29584,54.3938 64.23614,68.37665 0.21399,0.10339 0.43293,0.2016 0.6482,0.30365 12.79583,7.51233 26.36444,12.1427 39.49383,13.07422 32.86981,2.33197 56.76667,-15.8327 61.06635,-51.43897 1.63586,-13.54675 1.86865,-29.72772 -0.48908,-45.65411 z m -9.54278,46.02521 c -2.27594,11.52679 -7.25269,22.64093 -15.85169,30.83368 -18.28882,17.42474 -46.63757,16.27508 -68.60669,7.27679 -29.30249,-12.00183 -51.34369,-36.77881 -65.97607,-64.25281 -13.94183,-26.17736 -21.80548,-55.74749 -22.31543,-85.41449 -0.61719,-35.90637 1.50952,-71.84326 5.29138,-107.54126 0.45404,-4.28564 0.93488,-8.56829 1.43677,-12.84857 0.1557,-1.32751 -2.04505,-1.60962 -2.32916,-0.31518 -5.96436,27.17035 -13.11182,54.12378 -22.24616,80.4107 -4.57342,13.16144 -9.6496,26.15802 -15.45422,38.8277 -5.12116,11.17804 -10.66187,22.32654 -17.60456,32.50183 -6.43695,9.43408 -14.55564,18.53839 -25.24388,23.15271 -10.89788,4.7049 -22.9309,3.45123 -33.33606,-1.90344 -22.4013,-11.52814 -36.40905,-35.65338 -46.05871,-57.9502 -10.90845,-25.2052 -16.93689,-52.32434 -18.72168,-79.6903 0.0933,-5.47382 -0.18146,-10.9643 -0.46546,-16.42206 -0.34851,-6.69562 -0.83123,-13.38288 -1.22033,-20.07605 -0.0882,-1.51703 -2.46039,-1.52722 -2.37159,0 0.38916,6.69317 0.87189,13.38043 1.22034,20.07605 0.0859,1.651 0.17145,3.30511 0.24658,4.96075 -0.13501,0.17438 -0.24377,0.37873 -0.27398,0.64514 -3.39606,29.93103 -6.72107,59.891 -13.90637,89.19355 -7.10292,28.96649 -17.57795,58.93664 -39.629277,80.06671 -9.797852,9.38849 -22.267761,16.8587 -36.155331,17.26745 -13.823299,0.4068 -26.697149,-6.4364 -34.519531,-17.76629 -16.5775109,-24.01074 -11.4758302,-56.45691 0.1037,-81.35126 11.40149,-24.51166 28.99317,-45.24377 43.743037,-67.69592 16.669617,-25.37439 27.999512,-53.46338 38.562073,-81.78657 9.375979,-25.141357 18.421019,-51.08728 34.227299,-73.061768 8.28338,-11.51581 18.56719,-22.02802 31.42126,-28.3571201 12.78693,-6.2960801 29.62787,-8.55823042 42.34656,-0.8944102 10.5603,6.3632203 15.57104,18.2780813 18.30609,29.7850313 3.04999,12.832092 4.31433,26.2052 5.52203,39.315735 2.76068,29.967412 3.33124,60.104192 3.72834,90.179212 0.10827,8.20172 0.1936,16.40369 0.27929,24.60559 0.0134,1.28485 2.107,1.67694 2.32923,0.31525 6.52142,-39.96558 12.81121,-81.70692 31.26664,-118.238411 16.05097,-31.77179 43.89472,-58.2995 79.26874,-66.480591 8.18121,-1.8920898 20.40637,-2.7343101 25.5177,5.556151 2.41132,3.91113 2.50208,8.92127 2.77374,13.372499 0.29798,4.88287 0.34552,9.778259 0.25568,14.668388 -0.38281,20.84393 -2.89636,41.600708 -1.62958,62.467224 2.43164,40.05598 19.72736,77.53896 42.91089,109.77492 11.8783,16.51642 25.90161,31.10376 39.08069,46.5423 13.63037,15.96722 25.84088,33.0548 31.38849,53.57434 1.37243,5.07653 2.39807,10.23516 3.18329,15.43341 2.41723,16.69091 2.78619,34.63 -0.49408,51.24359 z"
             style="fill:#000000;fill-opacity:1;fill-rule:nonzero;stroke:none"
             id="path288" /></g></g></g><g
       id="g290"><g
         id="g292"
         clip-path="url(#clipPath296)"><g
           id="g298"
           clip-path="url(#clipPath302)"><g
             id="g304"
             clip-path="url(#clipPath308)"><g
               id="g310"
               clip-path="url(#clipPath314)"><g
                 id="g316"
                 clip-path="url(#clipPath320)"><g
                   id="g322"
                   transform="matrix(0.79327983,-0.05126544,0.05126544,0.79327983,781.78955,614.0304)"><path
                     d="m 373.62488,395.57462 c -5.76569,17.10546 -30.03485,68.92511 -53.54212,49.13769 -2.65728,-2.23688 -4.75921,-4.98523 -6.48388,-8.02826 -0.0387,-0.031 -0.0802,-0.0577 -0.11872,-0.089 -6.5238,-5.29718 -9.83361,-13.40961 -12.24762,-21.22558 -3.03393,-9.82294 -5.4494,-19.87494 -7.71185,-29.8996 -8.50952,-37.70435 -12.76038,-76.14398 -16.46216,-114.57025 -0.3125,0.12817 -0.60858,0.26349 -0.92456,0.39013 -29.26674,11.7284 -72.46753,16.89319 -101.17282,4.03479 0.20209,20.5965 0.0946,41.19739 -0.32342,61.78907 -0.93677,46.1557 1.29077,100.82281 -8.94977,145.38775 -1.83515,7.98651 -6.37812,15.50348 -12.90051,18.08386 -9.745,3.85517 -21.52454,-6.99255 -32.19764,-20.93933 -0.18567,-0.20538 -0.37548,-0.41351 -0.55651,-0.61548 -7.95862,-8.88079 -14.60138,-18.92535 -20.899419,-29.0213 C 83.274933,424.58658 67.573822,399.03342 54.52573,372.02481 37.964081,337.74338 24.87851,301.77664 15.680519,264.82895 6.3914099,227.51505 1.03801,189.1752 0.17711002,150.72195 -0.60968995,115.58017 0.30168003,77.013588 22.79241,47.998207 31.67174,36.542946 43.406967,27.099768 57.063889,22.018717 c 14.000122,-5.2088 29.530448,-5.08844 43.609741,-0.22455 23.54584,8.134281 39.09656,27.197387 48.78113,49.083 15.75158,28.606506 19.77881,66.201413 21.89593,101.310423 0.42102,6.98151 0.78748,13.96741 1.1305,20.95514 5.14251,-2.63739 10.53894,-4.85217 15.89654,-6.90503 25.50665,-9.77313 54.508,-14.12256 80.74397,-4.75732 -2.31964,-31.28858 -2.56433,-62.82782 1.8794,-93.946353 2.99975,-21.006958 8.43677,-42.44751 20.3985,-60.285339 C 302.35608,10.90995 319.54639,-1.02035 339.87994,0.06900001 361.84149,1.2455701 381.32745,15.6207 393.06775,33.564789 c 3.60065,5.5033 6.58533,11.314091 9.09613,17.326969 10.16742,18.885677 14.54755,41.042782 16.83173,62.776972 10.0418,95.5459 -14.81708,191.25842 -45.37073,281.90589 z"
                     style="fill:#fc83f8;fill-opacity:1;fill-rule:nonzero;stroke:none"
                     id="path324" /><path
                     d="m 346.61938,423.43326 c 7.0246,-9.20783 12.49543,-19.74091 16.91095,-30.42078 2.46521,-5.96277 4.39521,-12.12506 6.41578,-18.24811 3.16705,-9.59747 6.24963,-19.22308 9.21814,-28.88391 12.02288,-39.12842 22.23663,-78.9115 28.44323,-119.40613 6.19239,-40.40155 8.21265,-81.51611 3.98224,-122.22503 C 408.802,78.022011 403.15491,50.016209 386.33423,28.8685 373.26276,12.43436 351.88788,-0.06656075 330.30426,3.2535095 c -19.52515,3.00348 -33.52954,18.1481895 -42.15832,34.9900515 -10.0926,19.698971 -13.98938,41.928283 -16.14112,63.750669 -2.67138,27.09259 -2.07495,54.39179 0.012,81.50171 0.0644,0.83588 -0.93897,1.63294 -1.73963,1.32526 -16.65321,-6.39911 -34.76588,-7.09088 -52.22627,-4.06006 -8.63324,1.4986 -17.11145,3.84106 -25.35626,6.79651 -8.03443,2.88006 -16.16785,6.18597 -23.53784,10.55938 -0.0937,0.13813 -0.22303,0.26435 -0.39319,0.37 -6.89362,4.28088 -13.50946,8.99365 -19.79303,14.12872 -1.24048,1.0138 -3.02436,-0.75164 -1.77375,-1.77374 5.90284,-4.82391 12.09192,-9.28186 18.52149,-13.375 -0.41791,-9.62781 -0.88471,-19.25336 -1.43231,-28.87463 -1.84058,-32.33893 -4.07795,-66.19916 -17.08301,-96.310062 C 141.18785,58.355316 132.58238,45.34037 120.60893,35.841709 108.62761,26.336708 93.535507,20.662329 78.177414,20.84293 47.471001,21.20401 22.51433,45.403229 11.91332,72.7612 5.2427907,89.9758 3.4913206,108.6619 2.9775305,126.97324 c -0.52087,18.56427 0.0871,37.16778 1.68964,55.66833 3.2198501,37.17133 10.5513895,73.96716 21.4851695,109.63159 10.880978,35.49231 25.366817,69.86377 43.120731,102.46454 7.220093,13.258 15.308716,25.93213 23.104431,38.84375 5.47699,9.07123 10.884218,18.18475 16.868718,26.93585 6.18048,9.03778 12.96991,18.50293 21.78607,25.17621 3.07385,2.32672 6.71942,4.54566 10.65533,4.85004 5.88574,0.45514 10.53693,-4.19257 13.25366,-8.95374 4.07093,-7.13427 5.04877,-16.08917 6.36304,-24.07684 1.44562,-8.78583 2.46759,-17.6369 3.22797,-26.50696 1.51806,-17.71026 1.99902,-35.49365 2.21795,-53.26147 0.45917,-37.26929 1.16205,-74.56824 0.80506,-111.83948 -0.0108,-1.13202 1.15448,-1.5918 2.06793,-1.18665 7.51331,3.33216 15.41968,5.72968 23.46136,7.39972 14.62171,3.03662 29.79487,3.70795 44.63624,2.07483 7.31323,-0.80475 14.57708,-2.23169 21.61785,-4.37561 3.26398,-0.99389 6.69202,-2.00354 9.67768,-3.68121 2.69214,-1.5127 5.17334,-3.38989 7.9223,-4.80164 0.10577,-0.0543 0.21118,-0.0893 0.31592,-0.11804 3.46325,-2.57757 6.67822,-5.52765 9.7622,-8.47571 5.15906,-4.93176 9.99994,-10.17663 14.85914,-15.39984 1.10241,-1.185 2.87231,0.5929 1.77374,1.77374 -4.94965,5.32044 -9.88062,10.66364 -15.14765,15.67505 -2.98675,2.84174 -6.1098,5.68592 -9.4497,8.20728 0.45746,4.82355 0.91748,9.64685 1.38989,14.46893 3.93384,40.15363 8.81061,80.28949 18.63647,119.48883 2.27369,9.07068 4.29389,18.6817 8.38569,27.14734 2.86871,5.93518 7.49145,12.02252 14.1679,13.80347 10.30982,2.75024 19.42609,-7.18292 24.98712,-14.47229 z M 342.64075,26.569611 c 22.08386,-2.301941 31.30798,11.98059 38.09717,30.942932 9.84503,27.497429 13.35437,57.242487 10.17065,86.275697 -0.0773,0.7052 -0.33789,1.39721 -0.82794,1.91009 -1.81281,1.89716 -4.26349,-0.0115 -5.50385,-1.88891 -5.27447,-7.98365 -5.51379,-18.12982 -6.24078,-27.67084 -0.53278,-6.99261 -1.66644,-14.43402 -5.0885,-20.368286 -1.44971,-2.513923 -5.26197,-1.764099 -5.63831,1.113404 l -3.3916,25.933842 c -0.27441,2.09802 -1.82294,3.8927 -3.91077,4.2362 -4.20782,0.69245 -5.45459,-5.0744 -5.18414,-9.13379 1.11749,-16.77551 1.0025,-33.632444 -0.33801,-50.392271 C 353.953,57.129372 352.1701,39.90604 344.83087,31.831581 343.46558,30.3295 341.74396,28.3906 342.64075,26.569611 Z M 328.15649,373.8981 c 9.23572,-34.49084 28.7146,-65.65216 37.10401,-100.35858 5.13592,-21.24695 11.8565,-42.37103 14.95605,-64.15002 0.0863,-0.60602 0.2334,-1.30469 0.78058,-1.57898 0.54724,-0.2743 1.34235,0.50433 0.87311,0.8974 l -0.0514,0.13379 c -5.47644,55.69885 -14.25678,111.07269 -26.2796,165.73358 -1.32947,6.04455 -2.82026,12.33313 -6.80188,17.07141 -3.98157,4.73828 -11.25599,7.31982 -16.53602,4.091 -6.79547,-4.15558 -6.10516,-14.14532 -4.04486,-21.8396 z M 60.924789,113.40366 C 46.633171,180.8782 42.759201,251.65872 59.780319,318.49692 L 56.9561,314.9725 C 31.1898,253.34134 21.089462,185.23367 27.86046,118.77719 29.81053,99.637482 34.117538,78.869354 49.07848,66.773834 c 2.26025,-1.827331 5.06409,-3.483391 7.913639,-2.910702 3.62915,0.729428 5.596618,4.657895 6.546451,8.235714 3.575062,13.46698 0.27343,27.673821 -2.613781,41.304814 z m 76.917421,337.61285 c -5.31433,2.57568 -11.31152,-1.66876 -15.48236,-5.84979 -15.98041,-16.01935 -28.491396,-35.41858 -36.792971,-56.4524 -3.810791,-9.65686 -20.763,-56.75177 -8.036316,-62.20007 1.759583,6.75263 0.605217,14.75928 2.549012,22.06507 2.266052,8.51666 5.8927,16.61883 10.329711,24.21667 9.084534,15.55597 21.623724,28.94427 35.081484,40.79858 3.1488,2.77362 6.36993,5.50147 9.04828,8.73169 2.87884,3.47211 5.08386,7.47919 6.66479,11.70343 2.22632,5.94861 2.35407,14.21662 -3.36163,16.98682 z M 271.14471,209.4874 c -1.0794,0.88446 -2.51782,1.16931 -3.89764,1.3778 -12.65932,1.91285 -25.53999,-0.16864 -38.34181,-0.34411 -15.38281,-0.21088 -30.79962,2.36847 -45.27606,7.57507 l -0.064,-0.30908 c 25.92072,-13.37848 51.14655,-22.47986 78.07625,-19.6095 3.15106,0.33588 6.49365,0.86737 8.86108,2.97376 2.36743,2.10644 3.09326,6.32757 0.64221,8.33606 z"
                     style="fill:#fc83f8;fill-opacity:1;fill-rule:nonzero;stroke:none"
                     id="path326" /><path
                     d="M 63.538559,72.098846 C 67.113632,85.565826 63.812,99.772675 60.924789,113.40366 46.633171,180.8782 42.759201,251.65872 59.780319,318.49692 L 56.9561,314.9725 C 31.1898,253.34134 21.089462,185.23367 27.86046,118.77719 29.81053,99.637482 34.117538,78.869354 49.07848,66.773834 c 2.26025,-1.827331 5.06409,-3.483391 7.913639,-2.910702 3.62915,0.729428 5.596611,4.657895 6.54644,8.235714 z M 380.99713,207.81052 c -0.54718,0.27429 -0.69433,0.97296 -0.78058,1.57898 -3.09955,21.77899 -9.82013,42.90307 -14.95605,64.15002 -8.38941,34.70642 -27.86829,65.86774 -37.10401,100.35858 -2.0603,7.69428 -2.75061,17.68402 4.04486,21.8396 5.28003,3.22882 12.55445,0.64728 16.53602,-4.091 3.98162,-4.73828 5.47241,-11.02686 6.80188,-17.07141 12.02282,-54.66089 20.80316,-110.03473 26.2796,-165.73358 l 0.0514,-0.13379 c 0.46924,-0.39307 -0.32587,-1.1717 -0.87311,-0.8974 z M 270.5025,201.15134 c -2.36743,-2.10639 -5.71002,-2.63788 -8.86108,-2.97376 -26.9297,-2.87036 -52.15553,6.23102 -78.07625,19.6095 l 0.064,0.30908 c 14.47644,-5.2066 29.89325,-7.78595 45.27606,-7.57507 12.80182,0.17547 25.68249,2.25696 38.34181,0.34411 1.37982,-0.20849 2.81824,-0.49334 3.89764,-1.3778 2.45105,-2.00849 1.72522,-6.22962 -0.64221,-8.33606 z"
                     style="fill:#fefefe;fill-opacity:1;fill-rule:nonzero;stroke:none"
                     id="path328" /><path
                     d="m 390.90857,143.78824 c -0.0773,0.7052 -0.33789,1.39721 -0.82794,1.91009 -1.81281,1.89716 -4.26349,-0.0115 -5.50385,-1.88891 -5.27447,-7.98365 -5.51379,-18.12982 -6.24078,-27.67084 -0.53278,-6.99261 -1.66644,-14.43402 -5.0885,-20.368286 -1.44971,-2.513923 -5.26197,-1.764099 -5.63831,1.113404 l -3.3916,25.933842 c -0.27441,2.09802 -1.82294,3.8927 -3.91077,4.2362 -4.20782,0.69245 -5.45459,-5.0744 -5.18414,-9.13379 1.11749,-16.77551 1.0025,-33.632444 -0.33801,-50.392271 -0.83167,-10.398307 -2.61457,-27.621639 -9.9538,-35.696098 -1.36529,-1.502079 -3.08691,-3.440979 -2.19012,-5.261959 22.08386,-2.301941 31.30798,11.980591 38.09717,30.942928 9.84503,27.497429 13.35437,57.24249 10.17065,86.27569 z"
                     style="fill:#5ce1e6;fill-opacity:1;fill-rule:nonzero;stroke:none"
                     id="path330" /><path
                     d="m 137.84221,451.01651 c -5.31433,2.57568 -11.31152,-1.66876 -15.48236,-5.84979 -15.98041,-16.01935 -28.491396,-35.41858 -36.792971,-56.4524 -3.810791,-9.65686 -20.763,-56.75177 -8.036316,-62.20007 1.759583,6.75263 0.605217,14.75928 2.549012,22.06507 2.266052,8.51666 5.8927,16.61883 10.329711,24.21667 9.084534,15.55597 21.623724,28.94427 35.081484,40.79858 3.1488,2.77362 6.36993,5.50147 9.04828,8.73169 2.87884,3.47211 5.08386,7.47919 6.66479,11.70343 2.22632,5.94861 2.35407,14.21662 -3.36163,16.98682 z"
                     style="fill:#b1fd34;fill-opacity:1;fill-rule:nonzero;stroke:none"
                     id="path332" /><path
                     d="M 418.99561,113.66873 C 416.71143,91.93454 412.3313,69.777435 402.16388,50.891762 399.65308,44.878883 396.6684,39.068092 393.06775,33.564793 381.32745,15.6207 361.84149,1.24558 339.87994,0.06900001 319.54639,-1.02036 302.35608,10.909941 291.3996,27.24869 c -11.96173,17.837827 -17.39875,39.278379 -20.3985,60.285337 -4.44373,31.118533 -4.19904,62.657773 -1.8794,93.946353 -26.23597,-9.36524 -55.23732,-5.01581 -80.74397,4.75732 -5.3576,2.05286 -10.75403,4.26764 -15.89654,6.90503 -0.34302,-6.98773 -0.70948,-13.97363 -1.1305,-20.95514 -2.11712,-35.10901 -6.14435,-72.703917 -21.89593,-101.310416 -9.68457,-21.88562 -25.23529,-40.94873 -48.78113,-49.083 C 86.594353,16.930285 71.064011,16.809925 57.063889,22.018724 43.406971,27.09977 31.67174,36.542938 22.79241,47.998199 0.30168,77.01358 -0.60969001,115.58017 0.17711002,150.72195 1.03801,189.1752 6.3914003,227.51505 15.68053,264.82895 c 9.197999,36.94769 22.28357,72.91443 38.845212,107.19586 13.048088,27.00861 28.749198,52.56177 44.608154,77.98425 6.298024,10.09595 12.940794,20.14051 20.899414,29.0213 0.18103,0.20197 0.37085,0.4101 0.55652,0.61548 10.67309,13.94678 22.45263,24.7945 32.19763,20.93933 6.5224,-2.58038 11.06537,-10.09735 12.90051,-18.08386 10.24054,-44.56494 8.013,-99.23205 8.94977,-145.38775 0.41803,-20.59168 0.52551,-41.19257 0.32343,-61.78907 28.70526,12.8584 71.90606,7.69361 101.1728,-4.03479 0.31598,-0.12664 0.61206,-0.26196 0.92456,-0.39013 3.70178,38.42627 7.95264,76.8659 16.46216,114.57025 2.26245,10.02466 4.67792,20.07666 7.71185,29.8996 2.41401,7.81597 5.72382,15.9284 12.24762,21.22558 0.0385,0.0313 0.08,0.058 0.11872,0.089 1.72467,3.04303 3.8266,5.79138 6.48388,8.02826 23.50727,19.78742 47.77643,-32.03223 53.54212,-49.13769 30.55365,-90.64747 55.41253,-186.35999 45.37073,-281.90589 z M 307.46436,424.10208 c -4.0918,-8.46564 -6.112,-18.07666 -8.38569,-27.14734 -9.82586,-39.19934 -14.70263,-79.3352 -18.63647,-119.48883 -0.47241,-4.82208 -0.93243,-9.64538 -1.38989,-14.46893 3.3399,-2.52136 6.46295,-5.36554 9.4497,-8.20728 5.26703,-5.01141 10.198,-10.35461 15.14765,-15.67505 1.09857,-1.18084 -0.67133,-2.95874 -1.77374,-1.77374 -4.8592,5.22321 -9.70008,10.46808 -14.85914,15.39984 -3.08398,2.94806 -6.29895,5.89814 -9.7622,8.47571 -0.10474,0.0288 -0.21015,0.0637 -0.31592,0.11804 -2.74896,1.41175 -5.23016,3.28894 -7.9223,4.80164 -2.98566,1.67767 -6.4137,2.68732 -9.67768,3.68121 -7.04078,2.14392 -14.30464,3.57086 -21.61787,4.37561 -14.84137,1.63312 -30.01453,0.96179 -44.63623,-2.07483 -8.04169,-1.67004 -15.94806,-4.06756 -23.46137,-7.39972 -0.91345,-0.40515 -2.07873,0.0546 -2.06793,1.18665 0.357,37.27124 -0.34588,74.57019 -0.80505,111.83948 -0.21893,17.76782 -0.69989,35.55121 -2.21796,53.26147 -0.76037,8.87006 -1.78235,17.72113 -3.22796,26.50696 -1.31427,7.98767 -2.29212,16.94257 -6.36304,24.07684 -2.71674,4.76117 -7.36792,9.40888 -13.25366,8.95374 -3.93592,-0.30438 -7.58149,-2.52332 -10.65534,-4.85004 C 122.21611,479.02023 115.42668,469.55508 109.2462,460.5173 103.2617,451.7662 97.854477,442.65268 92.377487,433.58145 84.581764,420.66983 76.493149,407.9957 69.273056,394.7377 51.519157,362.13693 37.033318,327.76547 26.152325,292.27316 15.21855,256.60873 7.8870101,219.8129 4.66716,182.64157 3.06462,164.14102 2.45665,145.53751 2.97752,126.97324 3.4913199,108.6619 5.2427902,89.9758 11.91332,72.7612 22.51433,45.403229 47.471001,21.20401 78.177406,20.84293 93.5355,20.662331 108.62761,26.3367 120.60893,35.841709 c 11.97344,9.498661 20.57892,22.513611 26.59412,36.440609 13.00506,30.110902 15.24243,63.971132 17.08301,96.310062 0.5476,9.62127 1.0144,19.24682 1.43231,28.87463 -6.42957,4.09314 -12.61865,8.55109 -18.52149,13.375 -1.25061,1.0221 0.53327,2.78754 1.77375,1.77374 6.28357,-5.13507 12.89941,-9.84784 19.79303,-14.12872 0.17016,-0.10565 0.29944,-0.23187 0.39319,-0.37 7.36999,-4.37341 15.50341,-7.67932 23.53784,-10.55938 8.24481,-2.95545 16.72302,-5.29791 25.35626,-6.79651 17.46039,-3.03082 35.57306,-2.33905 52.22627,4.06006 0.80066,0.30768 1.80402,-0.48938 1.73963,-1.32526 -2.08698,-27.10992 -2.68341,-54.40912 -0.012,-81.50171 2.15174,-21.822386 6.04852,-44.051687 16.14112,-63.750669 8.62878,-16.84186 22.63317,-31.9865706 42.15832,-34.9900515 21.58362,-3.32007001 42.9585,9.1808505 56.02997,25.6149905 16.82068,21.147712 22.46777,49.153503 25.25549,75.3808 4.23041,40.70892 2.21015,81.82348 -3.98224,122.22503 -6.2066,40.49463 -16.42035,80.27771 -28.44323,119.40613 -2.96851,9.66083 -6.05109,19.28644 -9.21814,28.88391 -2.02057,6.12305 -3.95057,12.28534 -6.41578,18.24811 -4.41552,10.67987 -9.88635,21.21295 -16.91095,30.42078 -5.56103,7.28937 -14.6773,17.22253 -24.98712,14.47229 -6.67645,-1.78095 -11.29919,-7.86829 -14.1679,-13.80347 z"
                     style="fill:#000000;fill-opacity:1;fill-rule:nonzero;stroke:none"
                     id="path334" /></g></g></g></g></g></g></g></g></svg>
